# xmcd
#
# Track frame offsets:
#	150
#	24223
#	42282
#
# Disc length: 824 seconds
#
# Revision: 0
# Processed by: cddbd v1.5.1PL0 Copyright (c) Steve Scherf et al.
# Submitted via: audiograbber 1.83.01
#
DISCID=17033603
DTITLE=Jörg F Küster - Lasst die Kinder in Ruh
DYEAR=1996
DGENRE=Soul
TTITLE0=Lasst die Kinder in Ruh
TTITLE1=Du bringst das
TTITLE2=Das es mich einmal gegeben hat
EXTD=
EXTT0=
EXTT1=
EXTT2=
PLAYORDER=
